<?xml version="1.0" encoding="utf-8"?>
<!-- Generator: Adobe Illustrator 25.2.1, SVG Export Plug-In . SVG Version: 6.00 Build 0)  -->
<svg version="1.1" xmlns="http://www.w3.org/2000/svg" xmlns:xlink="http://www.w3.org/1999/xlink" x="0px" y="0px"
	 viewBox="0 0 100 100" style="enable-background:new 0 0 100 100;" xml:space="preserve">
<style type="text/css">
	.st0{display:none;}
	.st1{display:inline;}
	.st2{fill:#003F7A;}
	.st3{fill:#008137;}
</style>
<g id="Camada_1" class="st0">
	<g class="st1">
		<g>
			<g>
				<g>
					<path class="st2" d="M43.38,46.52c-2.58,1.86-5.39,3.47-8.43,4.78c-1.5,0.65-3.12,1.1-4.82,1.31
						c-1.21,0.15-2.44,0.23-3.69,0.23v9.92h24.8V40.84L43.38,46.52L43.38,46.52z"/>
				</g>
				<g>
					<path class="st2" d="M8.09,46.52c2.58,1.86,5.39,3.47,8.43,4.78c1.5,0.65,3.12,1.1,4.82,1.31c1.21,0.15,2.44,0.23,3.69,0.23
						v9.92H0.22V40.84L8.09,46.52L8.09,46.52z"/>
				</g>
				<g>
					<path class="st2" d="M26.44,37.25v14.17c1.19,0,2.36-0.07,3.52-0.22l0,0c1.57-0.2,3.05-0.61,4.43-1.2
						c2.94-1.27,5.66-2.83,8.16-4.63l0,0l8.7-6.28v-1.85H26.44z"/>
				</g>
				<g>
					<path class="st2" d="M25.02,37.25v14.17c-1.19,0-2.36-0.07-3.52-0.22l0,0c-1.57-0.2-3.05-0.61-4.43-1.2
						c-2.94-1.27-5.66-2.83-8.16-4.63l0,0l-8.7-6.28v-1.85H25.02z"/>
				</g>
			</g>
		</g>
		<g>
			<g>
				<g>
					<path class="st3" d="M43.38,46.52c-2.58,1.86-5.39,3.47-8.43,4.78c-1.5,0.65-3.12,1.1-4.82,1.31
						c-1.21,0.15-2.44,0.23-3.69,0.23v9.92h24.8V40.84L43.38,46.52L43.38,46.52z"/>
				</g>
				<g>
					<path class="st3" d="M8.09,46.52c2.58,1.86,5.39,3.47,8.43,4.78c1.5,0.65,3.12,1.1,4.82,1.31c1.21,0.15,2.44,0.23,3.69,0.23
						v9.92H0.22V40.84L8.09,46.52L8.09,46.52z"/>
				</g>
				<g>
					<path class="st2" d="M26.44,37.25v14.17c1.19,0,2.36-0.07,3.52-0.22l0,0c1.57-0.2,3.05-0.61,4.43-1.2
						c2.94-1.27,5.66-2.83,8.16-4.63l0,0l8.7-6.28v-1.85H26.44z"/>
				</g>
				<g>
					<path class="st2" d="M25.02,37.25v14.17c-1.19,0-2.36-0.07-3.52-0.22l0,0c-1.57-0.2-3.05-0.61-4.43-1.2
						c-2.94-1.27-5.66-2.83-8.16-4.63l0,0l-8.7-6.28v-1.85H25.02z"/>
				</g>
			</g>
		</g>
		<g>
			<g>
				<g>
					<g>
						<path class="st2" d="M61.17,51.74v-8.82h3.24v8.58c0,2.23,1.03,3.26,2.86,3.26c1.87,0,2.8-1.07,2.8-3.37v-8.48h3.26v8.68
							c0,3.91-2.33,5.7-6.12,5.7C63.58,57.29,61.17,55.65,61.17,51.74z"/>
					</g>
				</g>
				<g>
					<g>
						<path class="st2" d="M82.95,57.09v-6.37c0-1.52-0.43-2.29-1.68-2.29c-1.3,0-2.03,1.11-2.03,2.9v5.76h-3.18v-8.35
							c0-1.12-0.04-1.91-0.06-2.51h3.04c0.04,0.38,0.14,1.62,0.16,2.23c0.55-1.72,1.91-2.43,3.47-2.43c2.74,0,3.51,1.84,3.51,3.87
							v7.2H82.95z"/>
					</g>
				</g>
				<g>
					<g>
						<path class="st2" d="M94.28,57.09h-5.39V42.92h4.91c3.29,0,5.17,1.2,5.17,3.59c0,1.6-0.85,2.66-2.55,3.06
							c2.17,0.28,3.37,1.58,3.37,3.47C99.78,55.89,97.47,57.09,94.28,57.09z M93.49,45.23h-1.42v3.3h1.44
							c1.54,0,2.21-0.51,2.21-1.66C95.72,45.67,95.01,45.23,93.49,45.23z M93.88,50.95h-1.8v3.79h1.91c1.5,0,2.51-0.49,2.51-1.95
							C96.49,51.35,95.32,50.95,93.88,50.95z"/>
					</g>
				</g>
			</g>
		</g>
	</g>
</g>
<g id="Camada_2">
	<g>
		<g>
			<g>
				<g>
					<g>
						<path class="st2" d="M14.24,84.8V67.68h6.3v16.65c0,4.33,2.01,6.34,5.55,6.34c3.62,0,5.43-2.08,5.43-6.53V67.68h6.34v16.84
							c0,7.59-4.53,11.06-11.88,11.06C18.92,95.58,14.24,92.4,14.24,84.8z"/>
					</g>
				</g>
				<g>
					<g>
						<path class="st2" d="M56.51,95.19V82.83c0-2.95-0.83-4.45-3.27-4.45c-2.52,0-3.93,2.16-3.93,5.63v11.18h-6.18V78.98
							c0-2.16-0.08-3.7-0.12-4.88h5.9c0.08,0.75,0.27,3.15,0.32,4.33c1.06-3.34,3.7-4.72,6.73-4.72c5.31,0,6.81,3.58,6.81,7.52
							v13.97H56.51z"/>
					</g>
				</g>
				<g>
					<g>
						<path class="st2" d="M78.51,95.19H68.05V67.68h9.52c6.38,0,10.03,2.32,10.03,6.97c0,3.11-1.65,5.16-4.96,5.94
							c4.21,0.55,6.53,3.07,6.53,6.73C89.18,92.87,84.69,95.19,78.51,95.19z M76.98,72.17h-2.75v6.41h2.8
							c2.99,0,4.29-0.99,4.29-3.23C81.31,73.03,79.93,72.17,76.98,72.17z M77.73,83.26h-3.5v7.36h3.7c2.91,0,4.88-0.94,4.88-3.78
							C82.8,84.05,80.52,83.26,77.73,83.26z"/>
					</g>
				</g>
			</g>
		</g>
		<g>
			<g>
				<g>
					<path class="st3" d="M84.24,22.42c-5,3.6-10.46,6.73-16.35,9.27c-2.91,1.26-6.05,2.13-9.35,2.54
						c-2.35,0.29-4.74,0.44-7.17,0.44v19.25h48.14V11.39L84.24,22.42L84.24,22.42z"/>
				</g>
				<g>
					<path class="st3" d="M15.76,22.42c5,3.6,10.46,6.73,16.35,9.27c2.91,1.26,6.04,2.13,9.35,2.54c2.35,0.29,4.74,0.44,7.17,0.44
						v19.25H0.49V11.39L15.76,22.42L15.76,22.42z"/>
				</g>
				<g>
					<path class="st2" d="M51.38,4.42v27.51c2.31,0,4.59-0.14,6.82-0.42l0,0c3.04-0.38,5.92-1.18,8.6-2.34
						c5.7-2.47,10.99-5.49,15.83-8.98v0L99.51,8V4.42H51.38z"/>
				</g>
				<g>
					<path class="st2" d="M48.63,4.42v27.51c-2.31,0-4.59-0.14-6.82-0.42h0c-3.04-0.38-5.92-1.18-8.6-2.34
						c-5.7-2.47-10.99-5.49-15.83-8.98v0L0.49,8V4.42H48.63z"/>
				</g>
			</g>
		</g>
	</g>
</g>
</svg>
